<?xml version="1.0" encoding="utf-8"?>
<!-- Generator: Adobe Illustrator 23.0.1, SVG Export Plug-In . SVG Version: 6.00 Build 0)  -->
<svg version="1.1" id="Layer_1" xmlns="http://www.w3.org/2000/svg" xmlns:xlink="http://www.w3.org/1999/xlink" x="0px" y="0px"
	 viewBox="0 0 17.8 28" style="enable-background:new 0 0 17.8 28;" xml:space="preserve">
<g style="display:none;">
	<path style="display:inline;" d="M-1.5,27l-1.8-5.1h-10.4l-1.8,5.1h-5.2l9.1-24.7h6.3L3.8,27H-1.5L-1.5,27z M-12.1,17.6h7.4
		L-8.4,7.1L-12.1,17.6z M17,9.4h5.2L14.7,27h-4.3L3,9.4h5.2l4.4,12L17,9.4L17,9.4z M40.8,18l-0.1,1.2h-13c0.1,1.4,0.6,2.5,1.4,3.2
		c0.8,0.7,1.9,1.1,3.1,1.1c0.9,0,1.7-0.2,2.3-0.6c0.7-0.4,1.1-1,1.5-1.8l4.5,0.7c-0.6,1.8-1.6,3.1-3.1,4.1c-1.5,1-3.2,1.5-5.2,1.5
		c-2.9,0-5.2-0.8-6.8-2.4c-1.7-1.6-2.5-3.8-2.5-6.7c0-2.8,0.8-5.1,2.5-6.7c1.7-1.6,3.9-2.5,6.7-2.5c2.6,0,4.7,0.7,6.3,2.2
		C40,12.8,40.8,15,40.8,18L40.8,18z M32.1,12.5c-2.4,0-3.8,1.1-4.3,3.4h8.1c-0.1-1.1-0.5-1.9-1.2-2.5C34,12.8,33.2,12.5,32.1,12.5
		L32.1,12.5z"/>
	<circle style="display:inline;fill-rule:evenodd;clip-rule:evenodd;fill:#FFAC9A;" cx="28.3" cy="2.5" r="2.5"/>
	<circle style="display:inline;fill-rule:evenodd;clip-rule:evenodd;fill:#FFAC9A;" cx="35.3" cy="2.5" r="2.5"/>
</g>
<path style="fill:#16DB65;" d="M14.9,14c1.5-1.5,2.5-3.5,2.5-5.7c0-4.5-3.8-8.1-8.5-8.1S0.3,3.8,0.3,8.3c0,2.2,0.9,4.2,2.5,5.7
	c0.4,0.4,0.8,0.7,1.3,1c0.5,0.3,1,0.6,1.6,0.8c0.9,0.4,2,0.6,3.1,0.6c0,0,0.2,0,0.2,0c1.9,0,3.4,1.5,3.4,3.3c0,1.8-1.5,3.3-3.4,3.3
	s-3.4-1.5-3.4-3.3c0-0.6,0.2-1.1,0.4-1.6l-1.5-0.8c-0.4,0.7-0.6,1.5-0.6,2.4c0,2.7,2.3,4.9,5.1,4.9s5.1-2.2,5.1-4.9
	c0-1.6-0.8-3-2-3.9c-0.8-0.6-1.9-1-3-1h0c0,0-0.2,0-0.2,0h0c-1.2,0-2.2-0.3-3.2-0.8c-0.5-0.3-1-0.6-1.5-1C2.8,11.8,2,10.1,2,8.3
	C2,4.7,5,1.8,8.8,1.8s6.8,2.9,6.8,6.5c0,1.8-0.8,3.5-2.1,4.7c-0.5-0.3-1-0.6-1.6-0.8c1.2-0.9,2-2.3,2-3.9c0-2.7-2.3-4.9-5.1-4.9
	S3.7,5.6,3.7,8.3c0,1.6,0.8,3,2,3.9c0.8,0.6,1.9,1,3,1h0c0,0,0.2,0,0.2,0h0c1.2,0,2.2,0.3,3.2,0.8c0.5,0.3,1,0.6,1.5,1
	c1.3,1.2,2.1,2.8,2.1,4.7c0,3.6-3.1,6.5-6.8,6.5S2,23.3,2,19.7c0-1.1,0.3-2.2,0.8-3.1l-1.5-0.8c-0.7,1.2-1.1,2.5-1.1,3.9
	c0,4.5,3.8,8.1,8.5,8.1s8.5-3.6,8.5-8.1C17.3,17.5,16.4,15.5,14.9,14z M8.9,11.8c-2,0-3.6-1.6-3.5-3.5c0-1.9,1.5-3.4,3.4-3.4
	c2,0,3.6,1.6,3.5,3.5C12.2,10.2,10.7,11.7,8.9,11.8z"/>
</svg>
