<?xml version="1.0" encoding="utf-8"?>
<!-- Generator: Adobe Illustrator 24.0.1, SVG Export Plug-In . SVG Version: 6.00 Build 0)  -->
<svg version="1.1" id="Layer_1" xmlns="http://www.w3.org/2000/svg" xmlns:xlink="http://www.w3.org/1999/xlink" x="0px" y="0px"
	 viewBox="0 0 371.2 261.7" style="enable-background:new 0 0 371.2 261.7;" xml:space="preserve">
<style type="text/css">
	.st0{fill:#044304;}
</style>
<g>
	<path class="st0" d="M0,189.3c1.3,0.4,3.3,0.4,3.8,1.3C16.9,213,29.9,235.5,42.9,258c0.5,0.9,0.5,2,0.8,3c-0.5,0.2-1,0.4-1.5,0.7
		c-1-1.6-2.1-3.1-3-4.7c-12.3-21-24.5-42.1-36.7-63.2c-0.7-1.2-1.7-2.4-2.5-3.5C0,189.9,0,189.6,0,189.3z"/>
	<path class="st0" d="M24.9,0c7.2,12.6,14.3,25.3,21.5,37.9c5.9,10.3,11.9,20.6,17.8,31c0.7,1.2,0.8,2.8,1.2,4.1
		c-0.5,0.2-1.1,0.4-1.6,0.6c-2.8-4.8-5.6-9.6-8.4-14.5C45,41.1,34.6,23.1,24.2,5c-0.7-1.3-0.2-3.3-0.3-5C24.3,0,24.6,0,24.9,0z"/>
	<path class="st0" d="M118.8,33.2c0.1-13.8,11.6-25.1,25.6-25c13.8,0.1,25.3,11.7,25.1,25.5c-0.2,13.9-11.7,25.1-25.6,25
		C129.8,58.6,118.7,47.3,118.8,33.2z"/>
	<path class="st0" d="M111.6,171.5c-17.4,4.7-35.7,9.6-55.2,14.8c5.1-19.1,10-37.5,14.8-55.2C84.6,144.5,98.1,158,111.6,171.5z"/>
	<path class="st0" d="M326.9,99c0,12.6,0,24.7,0,37.1c-12.4,0-24.6,0-37.2,0c0-12.2,0-24.5,0-37.1C302.1,99,314.3,99,326.9,99z"/>
	<path class="st0" d="M369.7,102.1c-14.2-24.8-28.3-48.6-41.9-72.6c0.8-0.4,1.6-0.9,2.4-1.3c13.7,23.8,27.4,47.6,41,71.5
		C371.3,99.9,370.5,100.8,369.7,102.1z"/>
</g>
</svg>
